<?xml version="1.0" encoding="UTF-8" standalone="no"?>
<svg xmlns="http://www.w3.org/2000/svg" xmlns:xlink="http://www.w3.org/1999/xlink" width="150" height="172" version="1.0">
  <path fill="#03f" stroke="#009" stroke-linejoin="round" d="M75 171.5c-86.46192 0-73.85771-150.92372-73.85771-150.92372C19.11072 20.57628 24.22538.5 24.22538.5S42.25701 13.15954 75 13.15954C107.56523 13.15954 125.77463.5 125.77463.5s5.11464 20.07628 23.08308 20.07628c0 0 12.60419 150.92372-73.85771 150.92372z"/>
  <path fill="none" stroke="#006" stroke-width="2" d="M74.98787 166.48606c-17.85957.09981-35.22538-9.35784-45.2684-24.01403C7.90449 107.90631 5.43548 65.410818 6.66255 25.475788c9.17425-1.89016 16.46711-8.917088 20.5-17.124998 14.88934 6.85771 31.41198 10.32404 47.82532 10.34668 16.41333-.02264 32.93597-3.48897 47.82531-10.34668 4.03289 8.20791 11.32575 15.234838 20.5 17.124998 1.22707 39.93503-1.24194 82.430522-23.05692 116.996242-10.04302 14.65619-27.40884 24.11384-45.26839 24.01403z"/>
  <path id="b" fill="#fc0" d="M46.40625 83.184338v14c0 9.972002 8.028 18.000002 18 18.000002s18-8.028 18-18.000002v-14h-10.5v14.15625c0 4.333512-3.345 7.843752-7.5 7.843752-4.155 0-7.5-3.51024-7.5-7.843752v-14.15625h-10.5z"/>
  <path fill="#fc0" d="M26.392775 83.175102h11v31h-11z"/>
  <path fill="#fff" d="M26.392775 52.175098h11v31h-11z"/>
  <path id="a" fill="#fff" d="M64.40625 51.184338c-9.972 0-18 8.027999-18 18v14h10.5v-14.1875c0-4.333509 3.345-7.8125 7.5-7.8125 4.155-.000001 7.5 3.478989 7.5 7.8125v14.1875h10.5v-14c0-9.972-8.028-18.000001-18-18z"/>
  <use xlink:href="#a" transform="translate(45.58313)"/>
  <use xlink:href="#b" transform="translate(45.58313)"/>
</svg>