<?xml version="1.0" encoding="UTF-8" standalone="no"?>
<svg
   width="148.16251mm"
   height="146.20312mm"
   id="svg2178"
   sodipodi:version="0.32"
   inkscape:version="1.2.1 (9c6d41e410, 2022-07-14)"
   inkscape:output_extension="org.inkscape.output.svg.inkscape"
   sodipodi:docname="3_bezel_()_35th_Infantry_Division_SSI_BlueColor_1d4990.svg"
   version="1.1"
   xmlns:inkscape="http://www.inkscape.org/namespaces/inkscape"
   xmlns:sodipodi="http://sodipodi.sourceforge.net/DTD/sodipodi-0.dtd"
   xmlns="http://www.w3.org/2000/svg"
   xmlns:svg="http://www.w3.org/2000/svg"
   xmlns:rdf="http://www.w3.org/1999/02/22-rdf-syntax-ns#"
   xmlns:cc="http://creativecommons.org/ns#"
   xmlns:dc="http://purl.org/dc/elements/1.1/">
  <metadata
     id="metadata2189">
    <rdf:RDF>
      <cc:Work
         rdf:about="">
        <dc:format>image/svg+xml</dc:format>
        <dc:type
           rdf:resource="http://purl.org/dc/dcmitype/StillImage" />
      </cc:Work>
    </rdf:RDF>
  </metadata>
  <defs
     id="defs2187" />
  <sodipodi:namedview
     inkscape:window-height="1051"
     inkscape:window-width="1686"
     inkscape:pageshadow="2"
     inkscape:pageopacity="0.0"
     guidetolerance="10.0"
     gridtolerance="10.0"
     objecttolerance="10.0"
     borderopacity="1.0"
     bordercolor="#666666"
     pagecolor="#ffffff"
     id="base"
     inkscape:zoom="1.3644239"
     inkscape:cx="344.46774"
     inkscape:cy="300.85959"
     inkscape:window-x="-9"
     inkscape:window-y="-9"
     inkscape:current-layer="svg2178"
     inkscape:showpageshadow="0"
     inkscape:pagecheckerboard="0"
     inkscape:deskcolor="#d1d1d1"
     inkscape:document-units="mm"
     showgrid="false"
     inkscape:window-maximized="1"
     showguides="true">
    <sodipodi:guide
       position="300.22441,237.61492"
       orientation="1,0"
       id="guide2019"
       inkscape:locked="false" />
    <sodipodi:guide
       position="261.70866,413.94802"
       orientation="1,0"
       id="guide2021"
       inkscape:locked="false" />
    <sodipodi:guide
       position="416.47615,293.91732"
       orientation="0,-1"
       id="guide2763"
       inkscape:locked="false" />
    <sodipodi:guide
       position="358.2098,255.40157"
       orientation="0,-1"
       id="guide2765"
       inkscape:locked="false" />
  </sodipodi:namedview>
  <path
     style="display:inline;fill:#1d4990;fill-opacity:1;fill-rule:nonzero;stroke:none"
     d="m 547.75553,276.01254 c 0,143.22047 -119.26772,259.44094 -266.20866,259.44094 -146.94095,0 -266.173235,-116.22047 -266.173235,-259.44094 0,-143.18504 119.232285,-259.405521 266.173235,-259.405521 146.94094,0 266.20866,116.220481 266.20866,259.405521 z"
     id="path2180" />
  <path
     style="display:inline;fill:#ffffff;fill-opacity:1;fill-rule:nonzero;stroke:none"
     d="m 279.92126,59.740158 c -55.77165,0 -106.72441,19.984252 -145.80709,52.972442 L 102.68504,81.779528 C 94.5,89.185039 86.811024,97.122047 79.61811,105.48426 l 30.93307,30.29527 c -33.271652,37.84252 -53.362204,86.88189 -53.362204,140.49213 0,54.60236 20.799213,104.45669 55.133854,142.54724 l -29.551176,28.87795 c 7.370078,8.25591 15.23622,16.05118 23.598426,23.31496 l 29.87008,-29.37401 c 38.83464,31.9252 88.90157,51.16535 143.6811,51.16535 54.38976,0 104.24409,-18.92126 142.93701,-50.42126 l 30.89764,30.29528 c 8.39763,-7.15748 16.40551,-14.81103 23.84645,-22.9252 l -30.68504,-30.15354 c 34.75985,-38.23229 55.87796,-88.37008 55.87796,-143.32677 0,-54 -20.40945,-103.32284 -54.1063,-141.27166 l 32.06693,-31.53543 C 473.52756,95.208661 465.80315,87.307087 457.58268,80.007874 L 425.01969,111.93307 C 386.00787,79.405512 335.30315,59.740158 279.92126,59.740158 Z m -18.2126,31.181102 v 120.36614 32.42126 14.95276 H 246.8622 188.07874 89.503937 C 98.07874,169.86614 170.64567,99.177165 261.70866,90.92126 Z m 38.51575,0.248031 C 389.94094,100.59449 461.12598,170.7874 469.59449,258.66142 H 373.8189 317.05512 300.22441 V 242.71654 211.2874 Z M 89.893701,297.17717 H 188.07874 247.5 261.70866 v 13.96063 33.44882 117.07086 C 171.77953,453.47244 99.92126,384.44882 89.893701,297.17717 Z m 210.330709,0 h 16.33465 57.25984 95.42126 c -9.92126,86.35039 -80.39764,154.91338 -169.01575,164.23228 v -116.82283 -32.4567 z"
     id="path2182" />
  <path
     style="display:inline;fill:#006600;fill-opacity:1;fill-rule:nonzero;stroke:none"
     d="M 280.20472,0 C 126.95669,0 0,122.49213 0,276.51969 c 0,153.99212 126.95669,276.05905 280.20472,276.05905 153.24804,0 279.77953,-122.06693 279.77953,-276.05905 C 559.98425,122.49213 433.45276,0 280.20472,0 Z m 0,29.30315 c 142.33465,0 255.18898,112.53544 255.18898,247.21654 0,134.6811 -112.85433,246.72047 -255.18898,246.72047 -142.37007,0 -255.578736,-112.03937 -255.578736,-246.72047 0,-134.6811 113.208666,-247.21654 255.578736,-247.21654 z"
     id="path2184" />
  <rect
     style="display:inline;opacity:1;fill:#ffffff;fill-opacity:1;stroke:#ffffff;stroke-width:20.6061;stroke-linejoin:round;stroke-dasharray:none;stroke-opacity:1;paint-order:stroke fill markers"
     id="rect1234"
     width="59.604568"
     height="59.604568"
     x="251.77425"
     y="247.42809" />
  <rect
     style="display:inline;opacity:1;fill:#1d4990;fill-opacity:1;stroke:#1d4990;stroke-width:37.3343;stroke-linejoin:round;stroke-dasharray:none;stroke-opacity:1;paint-order:stroke fill markers"
     id="rect296"
     width="71.538681"
     height="71.538681"
     x="318.89157"
     y="168.45558"
     inkscape:transform-center-x="9.2782813"
     inkscape:transform-center-y="-0.28116196" />
  <rect
     style="display:inline;fill:#1d4990;fill-opacity:1;stroke:#1d4990;stroke-width:37.3343;stroke-linejoin:round;stroke-dasharray:none;stroke-opacity:1;paint-order:stroke fill markers"
     id="rect296-2"
     width="71.538681"
     height="71.538681"
     x="318.89157"
     y="315.84433"
     inkscape:transform-center-x="9.2782813"
     inkscape:transform-center-y="-0.28116196" />
  <rect
     style="display:inline;fill:#1d4990;fill-opacity:1;stroke:#1d4990;stroke-width:37.3343;stroke-linejoin:round;stroke-dasharray:none;stroke-opacity:1;paint-order:stroke fill markers"
     id="rect296-4"
     width="71.538681"
     height="71.538681"
     x="171.50282"
     y="315.84433"
     inkscape:transform-center-x="9.2782813"
     inkscape:transform-center-y="-0.28116196" />
  <rect
     style="display:inline;fill:#1d4990;fill-opacity:1;stroke:#1d4990;stroke-width:37.3343;stroke-linejoin:round;stroke-dasharray:none;stroke-opacity:1;paint-order:stroke fill markers"
     id="rect296-0"
     width="71.538681"
     height="71.538681"
     x="171.50282"
     y="168.45558"
     inkscape:transform-center-x="9.2782813"
     inkscape:transform-center-y="-0.28116196" />
</svg>
